<svg xmlns="http://www.w3.org/2000/svg" xmlns:xlink="http://www.w3.org/1999/xlink" viewBox="0 0 280 250" preserveAspectRatio="xMidYMid" style="display: block; shape-rendering: auto; background: transparent;" width="280" height="250"><style type="text/css">
  .ld-text text {
    text-anchor: middle;
    dominant-baseline: middle;
    font-size: 80px;
    opacity: 0;
    user-select: none;
    pointer-events: none;
  }
</style>
<g style="transform-origin:140px 125px;transform:scale(1)" class="ld-text">
<g transform="translate(140,125)">
  <g transform="scale(1.0000) translate(0,0)"><g class="path" style="opacity: 1; transform-origin: -112.32px 14.48px 0px; transform: matrix3d(1, 0, 0, 0, 0, 1, 0, 0, 0, 0, 1, 0, 0, 0, 0, 1); animation: 1s linear -0.586667s infinite forwards animate-lqayskrow; transform-box: view-box;"><path d="M22 9.14L22 9.14Q32.16 9.14 32.16 17.22L32.16 17.22Q32.16 22.26 27.40 24.86Q22.64 27.46 13.84 27.54L13.84 27.54Q13.68 30.42 13.68 32.10L13.68 32.10Q13.68 35.70 15.32 37.42Q16.96 39.14 19.44 39.14Q21.92 39.14 23.96 38.18Q26 37.22 27.20 35.90Q28.40 34.58 29.28 33.14L29.28 33.14Q30.88 30.50 30.88 29.78L30.88 29.78L32.32 30.42Q32.08 31.70 30.88 33.82Q29.68 35.94 28.24 37.30Q26.80 38.66 24 39.82Q21.20 40.98 17.76 40.98L17.76 40.98Q11.28 40.98 7.96 37.90Q4.64 34.82 4.64 29.46L4.64 29.46Q4.64 19.94 9.36 14.54Q14.08 9.14 22 9.14 zM30.16 17.22Q30.16 14.58 28.60 12.86Q27.04 11.14 23.96 11.14Q20.88 11.14 17.96 14.82Q15.04 18.50 14.08 25.70L14.08 25.70Q30.16 25.62 30.16 17.22L30.16 17.22" style="fill: rgb(0, 65, 161);" transform="translate(-130.800,-20.129)"></path></g><g class="path" style="opacity: 1; transform-origin: -76.2px 10.34px 0px; transform: matrix3d(1, 0, 0, 0, 0, 1, 0, 0, 0, 0, 1, 0, 0, 0, 0, 1); animation: 1s linear -0.513333s infinite forwards animate-lqayskrow; transform-box: view-box;"><path d="M64.24 40.98L64.24 40.98Q57.20 40.98 56.56 34.98L56.56 34.98Q53.04 40.98 47.60 40.98Q42.16 40.98 39.28 37.90Q36.40 34.82 36.40 29.46L36.40 29.46Q36.40 20.02 40.88 14.58Q45.36 9.14 52.48 9.14L52.48 9.14Q56.56 9.14 58.80 11.62L58.80 11.62Q59.76 12.90 60 13.54L60 13.54L64.32-9.98Q61.92-9.74 60.32-7.74L60.32-7.74L59.12-8.70Q61.52-11.58 65.16-11.58Q68.80-11.58 70.80-9.74Q72.80-7.90 72.80-4.54L72.80-4.54Q72.80-3.90 72.64-2.46L72.64-2.46Q68.72 19.54 65.04 39.38L65.04 39.38Q67.44 39.14 69.04 37.14L69.04 37.14L70.24 38.10Q67.84 40.98 64.24 40.98 zM45.44 32.74Q45.44 36.42 46.20 37.78Q46.96 39.14 48.60 39.14Q50.24 39.14 51.76 38.02Q53.28 36.90 54.32 35.14L54.32 35.14Q56.24 32.18 57.04 30.10L57.04 30.10L59.36 17.46Q59.20 14.90 57.68 12.78Q56.16 10.66 52.48 10.66L52.48 10.66Q49.92 10.66 47.68 18.18Q45.44 25.70 45.44 32.74L45.44 32.74" style="fill: rgb(0, 65, 161);" transform="translate(-130.800,-20.129)"></path></g><g class="path" style="opacity: 1; transform-origin: -38.2px 14.48px 0px; transform: matrix3d(1, 0, 0, 0, 0, 1, 0, 0, 0, 0, 1, 0, 0, 0, 0, 1); animation: 1s linear -0.44s infinite forwards animate-lqayskrow; transform-box: view-box;"><path d="M79.92 10.74L79.92 10.74Q78 10.74 75.92 12.98L75.92 12.98L74.72 12.02Q75.28 10.90 77.20 10.02Q79.12 9.14 81.44 9.14L81.44 9.14Q88.72 9.14 88.72 15.70L88.72 15.70Q88.72 18.50 87.28 25.70Q85.84 32.90 85.84 35.14L85.84 35.14Q85.84 38.58 89.12 38.58L89.12 38.58Q91.44 38.58 93.64 35.86Q95.84 33.14 97.44 28.34L97.44 28.34L100.80 9.86Q106.72 9.86 109.44 9.38L109.44 9.38L110.48 9.14L105.12 39.38Q107.52 39.14 109.12 37.14L109.12 37.14L110.32 38.10Q107.92 40.98 104.32 40.98Q100.72 40.98 98.72 39.22Q96.72 37.46 96.64 34.26L96.64 34.26Q93.28 40.98 86.72 40.98L86.72 40.98Q82 40.98 79.36 38.30Q76.72 35.62 76.72 30.90L76.72 30.90Q76.72 28.42 78.24 21.34Q79.76 14.26 79.92 10.74" style="fill: rgb(0, 65, 161);" transform="translate(-130.800,-20.129)"></path></g><g class="path" style="opacity: 1; transform-origin: -3.36px 12.11px 0px; transform: matrix3d(1, 0, 0, 0, 0, 1, 0, 0, 0, 0, 1, 0, 0, 0, 0, 1); animation: 1s linear -0.366667s infinite forwards animate-lqayskrow; transform-box: view-box;"><path d="M115.76 9.86L119.84 9.86L122-1.98Q127.92-1.98 130.80-2.46L130.80-2.46L131.84-2.70Q130.72 2.90 129.36 9.86L129.36 9.86L139.28 9.86L139.12 11.30L129.12 11.30Q125.12 31.94 125.12 36.18L125.12 36.18Q125.12 38.74 127.84 38.74Q130.56 38.74 132.80 35.30Q135.04 31.86 136 27.86L136 27.86L137.44 28.34Q134.48 40.98 125.20 40.98L125.20 40.98Q121.36 40.98 118.80 38.86Q116.24 36.74 116.24 32.94Q116.24 29.14 119.52 11.30L119.52 11.30L115.60 11.30L115.76 9.86" style="fill: rgb(0, 65, 161);" transform="translate(-130.800,-20.129)"></path></g><g class="path" style="opacity: 1; transform-origin: 24.88px 13.91px 0px; transform: matrix3d(1, 0, 0, 0, 0, 1, 0, 0, 0, 0, 1, 0, 0, 0, 0, 1); animation: 1s linear -0.293333s infinite forwards animate-lqayskrow; transform-box: view-box;"><path d="M142.32 12.98L141.12 12.02Q143.52 9.14 147.16 9.14Q150.80 9.14 152.80 10.98Q154.80 12.82 154.80 16.18L154.80 16.18L154.80 16.66Q158.40 9.14 164.16 9.14L164.16 9.14Q170.32 9.14 170.32 15.54L170.32 15.54Q170.32 18.18 168.56 21.14Q166.80 24.10 165.04 26.78Q163.28 29.46 163.28 31.54L163.28 31.54L161.36 31.54Q161.36 28.58 164.80 23.54Q168.24 18.50 168.24 15.74Q168.24 12.98 167.16 11.98Q166.08 10.98 163.96 10.98Q161.84 10.98 159.80 12.82Q157.76 14.66 156.40 17.46L156.40 17.46Q154.24 21.62 153.52 24.26L153.52 24.26L153.52 24.34L150.64 40.26L141.04 40.26L146.32 10.74Q143.92 10.98 142.32 12.98L142.32 12.98" style="fill: rgb(0, 65, 161);" transform="translate(-130.800,-20.129)"></path></g><g class="path" style="opacity: 1; transform-origin: 58.48px 14.48px 0px; transform: matrix3d(1, 0, 0, 0, 0, 1, 0, 0, 0, 0, 1, 0, 0, 0, 0, 1); animation: 1s linear -0.22s infinite forwards animate-lqayskrow; transform-box: view-box;"><path d="M200.24 40.98L200.24 40.98Q193.20 40.98 192.56 34.82L192.56 34.82Q189.04 40.98 183.68 40.98Q178.32 40.98 175.16 37.74Q172 34.50 172 28.66L172 28.66Q172 19.54 176.48 14.34Q180.96 9.14 188.08 9.14L188.08 9.14Q193.92 9.14 195.84 14.66L195.84 14.66Q196.24 12.26 196.72 9.86L196.72 9.86Q202.64 9.86 205.52 9.38L205.52 9.38L206.56 9.14L201.04 39.38Q203.44 39.14 205.04 37.14L205.04 37.14L206.24 38.10Q203.84 40.98 200.24 40.98 zM181.04 32.74Q181.04 36.34 181.96 37.74Q182.88 39.14 184.80 39.14Q186.72 39.14 188.72 37.06L188.72 37.06Q191.36 34.34 192.96 30.18L192.96 30.18Q193.20 29.14 193.88 25.18Q194.56 21.22 195.04 18.66L195.04 18.66Q194.80 15.62 193.36 13.38Q191.92 11.14 189.76 11.14L189.76 11.14Q185.84 11.14 183.44 18.14Q181.04 25.14 181.04 32.74L181.04 32.74" style="fill: rgb(0, 65, 161);" transform="translate(-130.800,-20.129)"></path></g><g class="path" style="opacity: 1; transform-origin: 88.04px 14.48px 0px; transform: matrix3d(1, 0, 0, 0, 0, 1, 0, 0, 0, 0, 1, 0, 0, 0, 0, 1); animation: 1s linear -0.146667s infinite forwards animate-lqayskrow; transform-box: view-box;"><path d="M225.52 38.10Q223.12 40.98 219.52 40.98Q215.92 40.98 213.88 39.14Q211.84 37.30 211.84 34.34L211.84 34.34Q211.84 33.30 213.12 25.62L213.12 25.62L215.76 11.30L212.40 11.30L212.56 9.86L216 9.86Q221.92 9.86 224.72 9.38L224.72 9.38L225.84 9.14L220.32 39.38Q222.72 39.14 224.32 37.14L224.32 37.14L225.52 38.10" style="fill: rgb(0, 65, 161);" transform="translate(-130.800,-20.129)"></path></g><g class="path" style="opacity: 1; transform-origin: 91.8px -19.31px 0px; transform: matrix3d(1, 0, 0, 0, 0, 1, 0, 0, 0, 0, 1, 0, 0, 0, 0, 1); animation: 1s linear -0.0733333s infinite forwards animate-lqayskrow; transform-box: view-box;"><path d="M218.48 1.46Q216.80-0.22 216.80-2.62Q216.80-5.02 218.48-6.74Q220.16-8.46 222.56-8.46Q224.96-8.46 226.68-6.74Q228.40-5.02 228.40-2.62Q228.40-0.22 226.68 1.46Q224.96 3.14 222.56 3.14Q220.16 3.14 218.48 1.46" style="fill: rgb(0, 65, 161);" transform="translate(-130.800,-20.129)"></path></g><g class="path" style="opacity: 1; transform-origin: 117.48px 14.48px 0px; transform: matrix3d(1, 0, 0, 0, 0, 1, 0, 0, 0, 0, 1, 0, 0, 0, 0, 1); animation: 1s linear infinite forwards animate-lqayskrow; transform-box: view-box;"><path d="M261.04 39.38L261.04 39.38Q262.96 39.38 265.04 37.14L265.04 37.14L266.24 38.10Q265.68 39.22 263.76 40.10Q261.84 40.98 259.52 40.98L259.52 40.98Q252.24 40.98 252.24 34.42L252.24 34.42Q252.24 31.62 253.68 24.42Q255.12 17.22 255.12 14.98L255.12 14.98Q255.12 11.54 251.84 11.54L251.84 11.54Q249.20 11.54 246.76 14.98Q244.32 18.42 242.72 24.42L242.72 24.42L240 39.38Q242.48 39.14 244.08 37.14L244.08 37.14L245.28 38.10Q242.88 40.98 239.28 40.98Q235.68 40.98 233.64 39.14Q231.60 37.30 231.60 34.34L231.60 34.34Q231.60 33.22 232.88 25.54L232.88 25.54L235.52 10.74Q233.12 10.98 231.52 12.98L231.52 12.98L230.32 12.02Q232.72 9.14 236.36 9.14Q240 9.14 242 10.98Q244 12.82 244 16.18L244 16.18L244 16.66Q247.28 9.14 254.24 9.14L254.24 9.14Q258.96 9.14 261.60 11.82Q264.24 14.50 264.24 19.22L264.24 19.22Q264.24 21.70 262.72 28.78Q261.20 35.86 261.04 39.38" style="fill: rgb(0, 65, 161);" transform="translate(-130.800,-20.129)"></path></g></g><text dy="0.35em" fill="#0041a1" font-family="Sail" font-size="80">edutrain</text>
</g>
</g><style type="text/css">@keyframes animate-lqayskrow { 0.00% {transform: translate(0.00px,0.00px) rotate(0.00deg) scale(1.00, 1.00) skew(0deg, 0.00deg) ;opacity: 1.00;}2.00% {animation-timing-function: cubic-bezier(0.20,0.39,0.50,0.97);transform: translate(0.00px,-1.08px) rotate(0.00deg) ;}36.00% {animation-timing-function: cubic-bezier(0.50,0.03,0.80,0.61);transform: translate(0.00px,-10.00px) rotate(0.00deg) ;}72.00% {transform: translate(0.00px,-0.12px) rotate(0.00deg) ;}74.00% {animation-timing-function: cubic-bezier(0.24,0.43,0.48,0.91);transform: translate(0.00px,0.00px) rotate(0.00deg) scale(1.00, 0.95) ;}86.00% {animation-timing-function: cubic-bezier(0.53,0.08,0.77,0.57);transform: translate(0.00px,0.00px) rotate(0.00deg) scale(1.00, 0.80) ;}100.00% {animation-timing-function: cubic-bezier(0.53,0.08,0.77,0.57);transform: translate(0.00px,0.00px) rotate(0.00deg) scale(1.00, 1.00) ;} }</style><!-- [ldio] generated by https://loading.io --></svg>